<svg width="130" height="130" viewBox="0 0 130 130" fill="none" xmlns="http://www.w3.org/2000/svg">
<path fill-rule="evenodd" clip-rule="evenodd" d="M65 12.5517C36.0336 12.5517 12.5517 36.0336 12.5517 65C12.5517 93.9664 36.0336 117.448 65 117.448C93.9664 117.448 117.448 93.9664 117.448 65C117.448 36.0336 93.9664 12.5517 65 12.5517ZM0 65C0 29.1015 29.1015 0 65 0C100.899 0 130 29.1015 130 65C130 100.899 100.899 130 65 130C29.1015 130 0 100.899 0 65Z" fill="#1E1D23"/>
<path fill-rule="evenodd" clip-rule="evenodd" d="M65 12.5517C36.0336 12.5517 12.5517 36.0336 12.5517 65C12.5517 93.9664 36.0336 117.448 65 117.448C93.9664 117.448 117.448 93.9664 117.448 65C117.448 36.0336 93.9664 12.5517 65 12.5517ZM0 65C0 29.1015 29.1015 0 65 0C100.899 0 130 29.1015 130 65C130 100.899 100.899 130 65 130C29.1015 130 0 100.899 0 65Z" fill="#ED2424"/>
<path fill-rule="evenodd" clip-rule="evenodd" d="M52.3767 74.5698C56.3206 72.6964 60.6331 71.7247 65.0001 71.7246C69.3671 71.7246 73.6796 72.6962 77.6235 74.5695C81.5675 76.4428 85.0441 79.1708 87.799 82.556C89.9868 85.2443 89.581 89.1972 86.8927 91.385C84.2044 93.5728 80.2515 93.1671 78.0637 90.4787C76.4884 88.543 74.4985 86.9808 72.2383 85.9073C69.9781 84.8338 67.5053 84.2763 65.0002 84.2764C62.4952 84.2764 60.0223 84.8339 57.7621 85.9075C55.502 86.981 53.5122 88.5433 51.9369 90.479C49.7492 93.1674 45.7963 93.5732 43.1079 91.3855C40.4195 89.1977 40.0137 85.2448 42.2014 82.5565C44.9562 79.1713 48.4328 76.4431 52.3767 74.5698Z" fill="#1E1D23"/>
<path fill-rule="evenodd" clip-rule="evenodd" d="M52.3767 74.5698C56.3206 72.6964 60.6331 71.7247 65.0001 71.7246C69.3671 71.7246 73.6796 72.6962 77.6235 74.5695C81.5675 76.4428 85.0441 79.1708 87.799 82.556C89.9868 85.2443 89.581 89.1972 86.8927 91.385C84.2044 93.5728 80.2515 93.1671 78.0637 90.4787C76.4884 88.543 74.4985 86.9808 72.2383 85.9073C69.9781 84.8338 67.5053 84.2763 65.0002 84.2764C62.4952 84.2764 60.0223 84.8339 57.7621 85.9075C55.502 86.981 53.5122 88.5433 51.9369 90.479C49.7492 93.1674 45.7963 93.5732 43.1079 91.3855C40.4195 89.1977 40.0137 85.2448 42.2014 82.5565C44.9562 79.1713 48.4328 76.4431 52.3767 74.5698Z" fill="#ED2424"/>
<path d="M42.8618 60.1784C47.5024 60.1784 51.2644 56.4164 51.2644 51.7757C51.2644 47.135 47.5024 43.373 42.8618 43.373C38.2211 43.373 34.4591 47.135 34.4591 51.7757C34.4591 56.4164 38.2211 60.1784 42.8618 60.1784Z" fill="#1E1D23"/>
<path d="M42.8618 60.1784C47.5024 60.1784 51.2644 56.4164 51.2644 51.7757C51.2644 47.135 47.5024 43.373 42.8618 43.373C38.2211 43.373 34.4591 47.135 34.4591 51.7757C34.4591 56.4164 38.2211 60.1784 42.8618 60.1784Z" fill="#ED2424"/>
<path d="M86.905 60.1784C91.5456 60.1784 95.3076 56.4164 95.3076 51.7757C95.3076 47.135 91.5456 43.373 86.905 43.373C82.2643 43.373 78.5023 47.135 78.5023 51.7757C78.5023 56.4164 82.2643 60.1784 86.905 60.1784Z" fill="#1E1D23"/>
<path d="M86.905 60.1784C91.5456 60.1784 95.3076 56.4164 95.3076 51.7757C95.3076 47.135 91.5456 43.373 86.905 43.373C82.2643 43.373 78.5023 47.135 78.5023 51.7757C78.5023 56.4164 82.2643 60.1784 86.905 60.1784Z" fill="#ED2424"/>
</svg>
